<?xml version="1.0" encoding="UTF-8"?>
<svg width="32px" height="32px" viewBox="0 0 32 32" version="1.1" xmlns="http://www.w3.org/2000/svg" xmlns:xlink="http://www.w3.org/1999/xlink">
    <!-- Generator: Sketch 52.6 (67491) - http://www.bohemiancoding.com/sketch -->
    <title>dp-logo-svg</title>
    <desc>Created with Sketch.</desc>
    <defs>
        <circle id="path-1" cx="16" cy="16" r="16"></circle>
        <linearGradient x1="35.5085821%" y1="41.5620714%" x2="100%" y2="41.5620714%" id="linearGradient-3">
            <stop stop-color="#FFFFFF" offset="0%"></stop>
            <stop stop-color="#000000" offset="100%"></stop>
        </linearGradient>
        <linearGradient x1="28.8892475%" y1="56.816572%" x2="9.32143492%" y2="56.816572%" id="linearGradient-4">
            <stop stop-color="#FFFFFF" offset="0%"></stop>
            <stop stop-color="#000000" offset="100%"></stop>
        </linearGradient>
    </defs>
    <g id="Page-1" stroke="none" stroke-width="1" fill="none" fill-rule="evenodd">
        <g id="v1-copy-21" transform="translate(-1064.000000, -785.000000)">
            <g id="Rectangle-2" transform="translate(1048.000000, 169.000000)">
                <g id="Group-5">
                    <g id="Rectangle-Copy">
                        <g id="Mask-Copy-2" transform="translate(0.000000, 290.000000)">
                            <g id="Group" transform="translate(16.000000, 326.000000)">
                                <g id="dp-logo-svg">
                                    <mask id="mask-2" fill="white">
                                        <use xlink:href="#path-1"></use>
                                    </mask>
                                    <use id="Mask" fill="#2C2C2C" fill-rule="nonzero" xlink:href="#path-1"></use>
                                    <g id="Group-3" mask="url(#mask-2)">
                                        <g transform="translate(5.000000, 8.000000)" id="Group">
                                            <g>
                                                <g id="Group-4">
                                                    <path d="M8.09570538,14.1456932 C7.27779585,14.6864783 6.30545534,15 5.2622085,15 C2.35597099,15 0,12.5669245 0,9.56557377 C0,6.56422304 2.35597099,4.13114754 5.2622085,4.13114754 C6.30545534,4.13114754 7.27779585,4.44466919 8.09570538,4.98545432 L8.09570538,0 L11.000635,0 L11.000635,15 L8.09570538,15 L8.09570538,14.1456932 Z M5.2622085,11.72 C6.41435852,11.72 7.34836066,10.7554305 7.34836066,9.56557377 C7.34836066,8.37571702 6.41435852,7.41114754 5.2622085,7.41114754 C4.11005847,7.41114754 3.17605634,8.37571702 3.17605634,9.56557377 C3.17605634,10.7554305 4.11005847,11.72 5.2622085,11.72 Z" id="Combined-Shape" fill="#FFFFFF"></path>
                                                    <rect id="Rectangle-2" fill="url(#linearGradient-3)" opacity="0.100000001" x="8.09570538" y="0" width="2.90492958" height="15"></rect>
                                                </g>
                                                <g id="Group-2" transform="translate(16.030237, 7.500000) rotate(-180.000000) translate(-16.030237, -7.500000) translate(10.071904, 0.000000)">
                                                    <path d="M8.09564814,14.1457311 C7.27775048,14.686493 6.305431,15 5.2622085,15 C2.35597099,15 0,12.5669245 0,9.56557377 C0,6.56422304 2.35597099,4.13114754 5.2622085,4.13114754 C6.305431,4.13114754 7.27775048,4.44465456 8.09564814,4.98541647 L8.09564814,0 L11.0005777,0 L11.0005777,15 L8.09564814,15 L8.09564814,14.1457311 Z M5.2622085,11.72 C6.41435852,11.72 7.34836066,10.7554305 7.34836066,9.56557377 C7.34836066,8.37571702 6.41435852,7.41114754 5.2622085,7.41114754 C4.11005847,7.41114754 3.17605634,8.37571702 3.17605634,9.56557377 C3.17605634,10.7554305 4.11005847,11.72 5.2622085,11.72 Z" id="Combined-Shape" fill="#FFFFFF"></path>
                                                    <path d="M5.18830678,4.13167253 C5.21290028,4.13132292 5.23753456,4.13114754 5.2622085,4.13114754 C6.305431,4.13114754 7.27775048,4.44465456 8.09564814,4.98541647 L8.09564814,0 L11.0005777,0 L11.0005777,15 L8.09564814,15 L8.09564814,14.1457311 C7.27775048,14.686493 6.305431,15 5.2622085,15 C5.23753456,15 5.21290028,14.9998246 5.18830678,14.999475 L5.18830678,11.7186734 C5.2128354,11.7195554 5.23747167,11.72 5.2622085,11.72 C6.41435852,11.72 7.34836066,10.7554305 7.34836066,9.56557377 C7.34836066,8.37571702 6.41435852,7.41114754 5.2622085,7.41114754 C5.23747167,7.41114754 5.2128354,7.41159218 5.18830678,7.41247413 L5.18830678,4.13167253 Z" id="Combined-Shape" fill="url(#linearGradient-4)" opacity="0.100000001"></path>
                                                </g>
                                            </g>
                                        </g>
                                    </g>
                                </g>
                            </g>
                        </g>
                    </g>
                </g>
            </g>
        </g>
    </g>
</svg>